<svg width="12" height="12" viewBox="0 0 12 12" fill="none" xmlns="http://www.w3.org/2000/svg">
<g clip-path="url(#clip0)">
<path d="M6.3293 9.10368L11.8643 3.55333C12.0455 3.37148 12.0452 3.07706 11.8634 2.89551C11.6815 2.7141 11.3869 2.71457 11.2055 2.89645L5.99998 8.11643L0.794444 2.89626C0.613039 2.71441 0.318642 2.71394 0.136767 2.89532C0.0455961 2.98633 1.04753e-05 3.10556 1.04701e-05 3.22478C1.04649e-05 3.3437 0.0452909 3.46246 0.13583 3.5533L5.67069 9.10368C5.75783 9.19127 5.87642 9.24042 5.99998 9.24042C6.12354 9.24042 6.242 9.19113 6.3293 9.10368Z" fill="#6A6A6A"/>
</g>
<defs>
<clipPath id="clip0">
<rect width="12" height="12" fill="white" transform="translate(12) rotate(90)"/>
</clipPath>
</defs>
</svg>
